<?xml version="1.0" encoding="utf-8"?>
<!-- Generator: Adobe Illustrator 24.0.1, SVG Export Plug-In . SVG Version: 6.00 Build 0)  -->
<svg version="1.1" id="Livello_1" xmlns="http://www.w3.org/2000/svg" xmlns:xlink="http://www.w3.org/1999/xlink" x="0px" y="0px"
	 viewBox="0 0 500 500" style="enable-background:new 0 0 500 500;" xml:space="preserve">
<style type="text/css">
	.st0{fill:#FFFFFF;}
	.st1{fill:#EBBB61;}
</style>
<g>
	<g>
		<path class="st0" d="M433.7,70.8v46.5l-17.2,49L343.8,185c0,0,16.1,6.3,17.5,6.9c3.4,1.2,6.6,2.8,9.7,4.5c3,1.7,4.8,3.7,5.5,5.8
			c0.2,0.2,0.4,0.4,0.4,0.6v1c0,1.2,0,3-0.5,4.9c-2.6,10.9-63,174.6-63,174.6s-66.8-170.5-67.1-170.9c-0.5-2-0.9-3.7-1.4-5.3
			c-0.5-1.6-0.6-3.1-0.6-4.3v-0.5c0-0.1,0.4-0.9,0.4-1.1c0.6-2.2,2.2-4,4.7-5.3s25.4-10.9,25.4-10.9l-49.4-21.4l-57.5-15l-39.6-14.1
			l-42.6-25.4L72.5,36.1H68l-28.9,76.4l27.7,51.9l69.4,40.3l19.7,27l-31.3,6.2l-5.3,27.6l44.9,23l10,64.4l49.6,35.7l19.1,42.4
			l-2.1,36.1l42.2,29.1l33,2.1l35.9-28.3l-10.3-41.9l16.9-44.5l12.1-30.7l25.6-41.6v-44.2l21.3-29.3l29.9-53.1l10.7-64.1L441.5,71
			L433.7,70.8z"/>
	</g>
	<polygon class="st1" points="385.6,64.3 387.8,26.2 367.3,58.3 353.6,15.6 331.8,67.1 302.7,2.6 275.1,67.1 237.8,15.4 210.6,62.6 
		184.3,22.2 164.7,53.2 138.3,26.4 148.2,72 184.3,89.6 245.7,100.3 302.7,112.6 372.3,101.3 383.7,85.6 	"/>
</g>
</svg>
