<?xml version="1.0" encoding="utf-8"?>
<!-- Generator: Adobe Illustrator 23.1.0, SVG Export Plug-In . SVG Version: 6.00 Build 0)  -->
<svg version="1.1" id="Group_55" xmlns="http://www.w3.org/2000/svg" xmlns:xlink="http://www.w3.org/1999/xlink" x="0px" y="0px"
	 viewBox="0 0 220.4 72.6" style="enable-background:new 0 0 220.4 72.6;" xml:space="preserve">
<style type="text/css">
	.st0{fill:#FFFFFF;}
</style>
<g id="Group_49" transform="translate(27.635 63.854)">
	<path id="Path_6" class="st0" d="M5,0.4c0,0.1,0,0.1,0,0.1c0,0,0,0.1,0,0.1c0,0,0,0.1,0,0.2c0.1,0.3,0.3,0.8,0.5,1.3S6,3.3,6.2,3.9
		c0,0,0,0.1,0,0.1s0,0.1,0,0.1C6.5,4.9,6.8,5.6,7,6.2s0.4,1,0.5,1.2c0,0.1,0,0.1,0.1,0.2s0,0.1,0.1,0.1s0,0.1,0.1,0.1L7.8,8
		C7.9,8.1,7.9,8.2,8,8.2c0.1,0.1,0.2,0.1,0.4,0.2c0,0,0.1,0,0.1,0c0,0,0.1,0,0.1,0c0,0,0,0,0.1,0c0,0,0,0,0.1,0L9,8.6H5.6l0.3-0.1
		c0.1,0,0.1,0,0.2,0c0.1,0,0.1,0,0.2-0.1c0.1,0,0.2-0.1,0.3-0.1c0.1,0,0.1-0.1,0.2-0.2c0,0,0,0,0,0v0c0,0,0-0.1,0-0.1
		c0-0.1,0-0.1-0.1-0.2c0,0,0-0.1,0-0.1s0,0,0-0.1c0,0,0-0.1,0-0.1c0,0,0,0,0-0.1L5.8,5.2H3L2.2,7.3c0,0,0,0,0,0.1c0,0,0,0,0,0
		c0,0,0,0.1,0,0.1c0,0,0,0.1,0,0.1c0,0.1,0,0.2-0.1,0.2C2,7.9,2,8,2,8v0c0,0.1,0.1,0.1,0.2,0.2c0.1,0,0.2,0.1,0.3,0.1c0,0,0,0,0,0
		c0,0,0,0,0,0c0,0,0.1,0,0.1,0c0,0,0.1,0,0.1,0l0.3,0.1H0l0.2-0.1c0.1,0,0.1,0,0.2-0.1s0.1,0,0.2-0.1c0.1,0,0.2-0.1,0.4-0.2
		c0.1,0,0.2-0.1,0.2-0.2c0,0,0-0.1,0.1-0.1c0,0,0-0.1,0-0.1c0,0,0,0,0-0.1c0,0,0-0.1,0-0.1c0,0,0-0.1,0-0.1c0,0,0-0.1,0-0.1
		C1.5,7.2,1.6,7,1.7,6.8S1.9,6.3,2,6.1c0.1-0.1,0.1-0.2,0.2-0.4s0.1-0.2,0.2-0.4c0.4-1,0.7-1.9,1.1-2.7S3.9,1.2,4,1
		C4,0.9,4,0.8,4,0.8c0-0.1,0-0.1,0.1-0.2c0,0,0,0,0-0.1c0,0,0,0,0-0.1c0,0,0-0.1,0-0.1c0,0,0-0.1,0-0.1l0.8,0C4.9,0.3,4.9,0.3,5,0.4
		z M4.3,1.7l-1.1,3h2.3L4.3,1.7z"/>
	<path id="Path_7" class="st0" d="M27,4.7l-0.2,0l1.3,1.4c0.1,0.2,0.3,0.3,0.4,0.4l0.3,0.4c0,0,0.1,0.1,0.1,0.1s0.1,0.1,0.1,0.1
		c0.1,0.1,0.2,0.2,0.3,0.3c0.1,0.1,0.2,0.2,0.3,0.3c0.1,0.1,0.1,0.1,0.2,0.2s0.1,0.1,0.2,0.1L30,8.1c0,0,0.1,0,0.1,0.1
		c0.1,0,0.1,0.1,0.2,0.1s0.2,0.1,0.3,0.2l0.3,0.1l-0.4,0.1c0,0,0,0-0.1,0h-0.1c-0.2,0-0.3,0-0.4-0.1c-0.2,0-0.4-0.1-0.5-0.2
		c-0.3-0.1-0.5-0.3-0.8-0.6c-0.3-0.3-0.6-0.6-0.9-1l0,0c0,0,0,0,0,0c-0.1-0.1-0.1-0.1-0.2-0.2l-0.2-0.2l-1.6-1.8h-0.3v2.7
		c0,0.1,0,0.2,0,0.3c0,0.1,0.1,0.2,0.1,0.3c0.1,0.1,0.2,0.1,0.2,0.2c0.1,0,0.2,0.1,0.4,0.1l0.1,0c0,0,0,0,0.1,0c0.1,0,0.1,0,0.2,0.1
		s0.1,0,0.1,0.1l0.2,0.1H23l0.3-0.1c0.1,0,0.1,0,0.2,0l0.2-0.1c0.1,0,0.2-0.1,0.2-0.1c0.1,0,0.1,0,0.2-0.1c0,0,0.1,0,0.1-0.1
		c0,0,0,0,0.1-0.1c0,0,0.1-0.1,0.1-0.2c0-0.1,0-0.1,0-0.2V1.3c0-0.1,0-0.2,0-0.3c0-0.1,0-0.2-0.1-0.2c-0.1-0.1-0.2-0.1-0.3-0.2
		c-0.1-0.1-0.2-0.1-0.4-0.2l-0.2-0.1c-0.1,0-0.1-0.1-0.2-0.1l-0.2-0.1h2.1c0.1,0,0.2,0,0.3,0s0.2,0,0.3,0h0.1c0.1,0,0.2,0,0.2,0
		s0.2,0,0.3,0s0.2,0,0.3,0s0.2,0,0.3,0l0.2,0l0.2,0c0.5,0.1,0.9,0.4,1.3,0.7c0.4,0.4,0.6,1,0.6,1.6c0,0.4-0.1,0.9-0.4,1.2
		c-0.2,0.3-0.5,0.5-0.8,0.7c-0.1,0.1-0.3,0.1-0.4,0.2C27.3,4.6,27.2,4.6,27,4.7L27,4.7L27,4.7z M26.5,0.7
		C26.5,0.7,26.5,0.7,26.5,0.7c-0.1,0-0.1,0-0.1,0h-0.2c-0.1,0-0.3,0-0.4,0c-0.1,0-0.2,0-0.3,0.1c-0.1,0-0.1,0.1-0.1,0.2
		c0,0.1,0,0.2,0,0.2v3.1l0.5,0c0.6,0,1.1-0.2,1.5-0.5c0.4-0.3,0.7-0.8,0.6-1.3V2.4c0-0.4-0.2-0.8-0.5-1.1c-0.3-0.3-0.6-0.5-1-0.5
		C26.7,0.7,26.6,0.7,26.5,0.7C26.6,0.7,26.6,0.7,26.5,0.7L26.5,0.7L26.5,0.7z"/>
	<path id="Path_8" class="st0" d="M47.8,1.2c0.2,0.3,0.4,0.7,0.6,1.2s0.5,0.9,0.8,1.4l0.1,0.2c0,0.1,0.1,0.1,0.1,0.1
		c0.4,0.7,0.8,1.3,1.1,1.9s0.6,0.9,0.7,1c0.2-0.4,0.6-1,1-1.8s0.9-1.7,1.4-2.6c0,0,0-0.1,0.1-0.1s0-0.1,0.1-0.1
		c0.1-0.1,0.1-0.3,0.2-0.4S54,1.7,54,1.6s0.1-0.2,0.2-0.3S54.3,1,54.3,1c0,0,0,0,0-0.1s0,0,0-0.1c0-0.1,0.1-0.2,0.1-0.3
		s0.1-0.2,0.1-0.3l0.6,0c0,0.1,0,0.3,0,0.4c0,0.1,0,0.2,0,0.3c0,0,0,0.1,0,0.1c0,0,0,0.1,0,0.1c0,0.1,0,0.3,0,0.4s0,0.3,0,0.4
		c0,0.3,0.1,0.6,0.1,0.9s0.1,0.6,0.1,0.9c0.1,0.9,0.1,1.7,0.2,2.4c0.1,0.7,0.1,1.1,0.1,1.1c0,0,0,0,0,0.1c0,0,0,0,0,0.1
		c0,0.1,0,0.2,0.1,0.3C56,7.9,56,7.9,56.1,8c0.1,0.1,0.1,0.1,0.2,0.2c0.1,0.1,0.2,0.1,0.4,0.2c0.1,0,0.1,0,0.2,0.1L57,8.5l0.2,0.1
		h-3.5l0.4-0.1c0,0,0.1,0,0.1,0c0,0,0.1,0,0.1,0c0,0,0,0,0,0s0,0,0,0c0.1,0,0.2-0.1,0.3-0.1c0.1,0,0.2-0.1,0.2-0.2
		C54.9,8,55,7.9,55,7.8c0-0.1,0-0.2,0-0.2c0,0,0-0.1,0-0.1c0,0,0-0.1,0-0.1c0,0,0-0.1,0-0.1c0,0,0-0.1,0-0.1L54.5,2
		c-0.1,0.2-0.3,0.6-0.6,1.2s-0.6,1.1-0.9,1.7c-0.2,0.4-0.4,0.8-0.7,1.2s-0.4,0.8-0.6,1.1c0,0.1-0.1,0.1-0.1,0.2s-0.1,0.1-0.1,0.2
		c0,0,0,0.1,0,0.1c0,0,0,0.1,0,0.1c-0.1,0.2-0.2,0.4-0.3,0.7S51,8.6,51,8.7c0-0.1-0.1-0.2-0.2-0.3S50.6,8,50.5,7.9c0,0,0,0,0,0
		c0-0.1-0.1-0.1-0.1-0.2s-0.1-0.1-0.1-0.2c-0.8-1.5-1.5-2.7-2-3.6s-0.9-1.4-1-1.6L47,6.6c0,0,0,0.1,0,0.1c0,0.1,0,0.1,0,0.2
		C47,7,47,7,47,7.1s0,0.2,0,0.3v0.1c0,0.1,0,0.2,0,0.3c0,0.1,0,0.2,0.1,0.3c0,0.1,0.1,0.1,0.2,0.2c0.1,0,0.2,0.1,0.3,0.1
		c0,0,0,0,0,0c0,0,0,0,0,0c0,0,0.1,0,0.1,0c0,0,0.1,0,0.1,0l0.3,0.1h-3l0.2-0.1c0,0,0,0,0.1,0l0.1,0c0,0,0,0,0.1,0l0.1,0
		c0.1-0.1,0.2-0.1,0.4-0.2c0.1,0,0.2-0.1,0.2-0.2c0-0.1,0.1-0.3,0.1-0.4c0-0.2,0-0.4,0.1-0.6c0-0.1,0-0.1,0-0.2c0-0.1,0-0.1,0-0.2
		c0-0.3,0.1-0.5,0.1-0.8s0-0.6,0.1-0.9c0-0.6,0.1-1.2,0.1-1.7s0.1-1,0.1-1.3c0-0.2,0-0.4,0-0.5s0-0.3,0-0.5V0.2l0.7,0
		c0,0.1,0.1,0.2,0.1,0.3c0,0.1,0.1,0.2,0.1,0.3c0,0,0,0.1,0,0.1c0,0,0,0.1,0.1,0.1C47.8,1.1,47.8,1.1,47.8,1.2
		C47.8,1.2,47.8,1.2,47.8,1.2L47.8,1.2L47.8,1.2z"/>
	<path id="Path_9" class="st0" d="M76.3,0.4c0,0.1,0,0.1,0,0.1c0,0,0,0.1,0,0.1c0,0,0,0.1,0,0.2c0.1,0.3,0.3,0.8,0.5,1.3
		s0.4,1.2,0.6,1.8c0,0,0,0.1,0,0.1s0,0.1,0,0.1c0.3,0.7,0.5,1.4,0.8,2.1s0.4,1,0.5,1.2c0,0.1,0,0.1,0.1,0.2s0,0.1,0.1,0.1
		s0,0.1,0.1,0.1L79.1,8c0.1,0.1,0.1,0.2,0.2,0.2c0.1,0.1,0.2,0.1,0.4,0.2c0,0,0.1,0,0.1,0c0,0,0.1,0,0.1,0c0,0,0,0,0.1,0
		c0,0,0,0,0.1,0l0.2,0.1h-3.3l0.3-0.1c0,0,0.1,0,0.1,0c0.1,0,0.1,0,0.2-0.1c0.1,0,0.2-0.1,0.3-0.1C77.9,8.2,78,8.1,78,8c0,0,0,0,0,0
		v0c0,0,0-0.1,0-0.1c0-0.1,0-0.1-0.1-0.2c0,0,0-0.1,0-0.1s0,0,0-0.1c0,0,0-0.1,0-0.1c0,0,0,0,0-0.1l-0.8-2.1h-2.8l-0.8,2.1
		c0,0,0,0,0,0.1c0,0,0,0,0,0c0,0,0,0.1,0,0.1s0,0.1,0,0.1c0,0.1,0,0.2-0.1,0.2c0,0.1,0,0.1,0,0.2v0c0,0.1,0.1,0.1,0.2,0.2
		c0.1,0,0.2,0.1,0.3,0.1c0,0,0,0,0,0c0,0,0,0,0,0c0,0,0.1,0,0.1,0c0,0,0.1,0,0.1,0l0.3,0.1h-3.1l0.2-0.1c0.1,0,0.1,0,0.2-0.1
		l0.2-0.1c0.1,0,0.2-0.1,0.4-0.2c0.1,0,0.2-0.1,0.2-0.2c0,0,0-0.1,0.1-0.1s0-0.1,0-0.1c0,0,0,0,0-0.1c0,0,0-0.1,0-0.1l0-0.1
		c0,0,0-0.1,0-0.1C72.8,7.2,72.9,7,73,6.8s0.2-0.5,0.3-0.7c0.1-0.1,0.1-0.2,0.2-0.4s0.1-0.2,0.2-0.4c0.4-1,0.7-1.9,1.1-2.7
		s0.5-1.4,0.6-1.6c0-0.1,0-0.1,0.1-0.2c0-0.1,0-0.1,0.1-0.2c0,0,0,0,0-0.1c0,0,0,0,0-0.1c0,0,0-0.1,0-0.1s0-0.1,0-0.1l0.8,0
		C76.2,0.3,76.2,0.3,76.3,0.4z M75.7,1.7l-1.1,3h2.3L75.7,1.7z"/>
	<path id="Path_10" class="st0" d="M96.9,1.2c0.2,0.3,0.4,0.7,0.6,1.2s0.5,0.9,0.8,1.4l0.1,0.2c0,0.1,0.1,0.1,0.1,0.1
		c0.4,0.7,0.8,1.3,1.1,1.9s0.6,0.9,0.7,1c0.2-0.4,0.6-1,1-1.8s0.9-1.7,1.4-2.6c0,0,0-0.1,0.1-0.1s0-0.1,0.1-0.1
		c0.1-0.1,0.1-0.3,0.2-0.4s0.1-0.3,0.2-0.4s0.1-0.2,0.2-0.3s0.1-0.2,0.1-0.3c0,0,0,0,0-0.1c0,0,0,0,0-0.1c0-0.1,0.1-0.2,0.1-0.3
		s0.1-0.2,0.1-0.3l0.6,0c0,0.1,0,0.3,0,0.4c0,0.1,0,0.2,0,0.3c0,0,0,0.1,0,0.1c0,0,0,0,0,0.1c0,0.1,0,0.3,0,0.4s0,0.3,0,0.4
		c0,0.3,0.1,0.6,0.1,0.9s0.1,0.6,0.1,0.9c0.1,0.9,0.1,1.7,0.2,2.4s0.1,1.1,0.1,1.1c0,0,0,0,0,0.1c0,0,0,0,0,0.1c0,0.1,0,0.2,0.1,0.3
		c0,0.1,0.1,0.2,0.1,0.3c0.1,0.1,0.1,0.1,0.2,0.2c0.1,0.1,0.2,0.1,0.4,0.2c0.1,0,0.1,0,0.2,0.1s0.1,0,0.2,0.1l0.2,0.1h-3.5l0.4-0.1
		c0,0,0.1,0,0.1,0c0,0,0.1,0,0.1,0c0,0,0,0,0,0s0,0,0,0c0.1,0,0.2-0.1,0.3-0.1c0.1,0,0.2-0.1,0.2-0.2c0.1-0.1,0.1-0.2,0.1-0.3
		c0-0.1,0-0.2,0-0.2c0,0,0-0.1,0-0.1c0,0,0-0.1,0-0.1c0,0,0-0.1,0-0.1c0,0,0-0.1,0-0.1L103.7,2c-0.1,0.2-0.3,0.6-0.6,1.2
		s-0.6,1.1-0.9,1.7c-0.2,0.4-0.4,0.8-0.7,1.2s-0.4,0.8-0.6,1.1c0,0.1-0.1,0.1-0.1,0.2s-0.1,0.1-0.1,0.2c0,0,0,0.1,0,0.1
		c0,0,0,0.1,0,0.1c-0.1,0.2-0.2,0.4-0.3,0.7s-0.2,0.3-0.2,0.4c0-0.1-0.1-0.2-0.2-0.3S99.8,8,99.7,7.9c0,0,0,0,0,0
		c0-0.1-0.1-0.1-0.1-0.2s-0.1-0.1-0.1-0.2c-0.8-1.5-1.5-2.7-2-3.6s-0.9-1.4-1-1.6l-0.3,4.3c0,0,0,0.1,0,0.1c0,0.1,0,0.1,0,0.2
		c0,0.1,0,0.2,0,0.2s0,0.2,0,0.3v0.1c0,0.1,0,0.2,0,0.3c0,0.1,0,0.2,0.1,0.3c0,0.1,0.1,0.1,0.2,0.2c0.1,0,0.2,0.1,0.3,0.1
		c0,0,0,0,0,0c0,0,0,0,0,0c0,0,0.1,0,0.1,0c0,0,0.1,0,0.1,0l0.3,0.1h-3l0.2-0.1c0,0,0,0,0.1,0l0.1,0c0,0,0,0,0.1,0l0.1,0
		c0.1-0.1,0.2-0.1,0.4-0.2c0.1,0,0.2-0.1,0.2-0.2c0-0.1,0.1-0.3,0.1-0.4c0-0.2,0-0.4,0.1-0.6c0-0.1,0-0.1,0-0.2c0-0.1,0-0.1,0-0.2
		c0-0.3,0.1-0.5,0.1-0.8s0-0.6,0.1-0.9c0-0.6,0.1-1.2,0.1-1.7s0.1-1,0.1-1.3c0-0.2,0-0.4,0-0.5s0-0.3,0-0.5V0.2l0.7,0
		c0,0.1,0.1,0.2,0.1,0.3s0.1,0.2,0.1,0.3c0,0,0,0.1,0,0.1c0,0,0,0.1,0.1,0.1C96.9,1.1,96.9,1.1,96.9,1.2C97,1.2,97,1.2,96.9,1.2
		L96.9,1.2L96.9,1.2z"/>
	<path id="Path_11" class="st0" d="M126.1,0.2l0,1.8L126,1.6c0,0,0-0.1,0-0.1s0-0.1,0-0.1c0-0.1-0.1-0.2-0.1-0.3
		c0-0.1-0.1-0.2-0.2-0.2c-0.1,0-0.1-0.1-0.2-0.1c-0.1,0-0.2,0-0.2,0c0,0-0.1,0-0.1,0c0,0-0.1,0-0.1,0l-1.4,0c0,0,0,0,0,0h-0.1
		c-0.1,0-0.2,0-0.3,0c-0.1,0-0.1,0-0.2,0.1c0,0-0.1,0.1-0.1,0.2c0,0.1,0,0.2,0,0.2V4h1.9c0.1,0,0.2,0,0.3,0c0.1,0,0.2,0,0.2-0.1l0,0
		c0,0,0,0,0,0c0,0,0.1-0.1,0.1-0.1c0,0,0-0.1,0.1-0.1l0.2-0.5v2.7l-0.1-0.3c0,0,0-0.1,0-0.1c0,0,0-0.1,0-0.1c0,0,0,0,0,0
		c0,0,0,0,0,0c0-0.1-0.1-0.2-0.1-0.3c0-0.1-0.1-0.2-0.2-0.2c0,0-0.1-0.1-0.1-0.1c0,0-0.1,0-0.1,0c0,0-0.1,0-0.1,0h-1.9v2.8
		c0,0,0,0.1,0,0.1c0,0,0,0.1,0,0.1c0,0.1,0,0.2,0.1,0.2c0,0.1,0.1,0.1,0.1,0.1c0.1,0,0.1,0,0.2,0.1c0.1,0,0.1,0,0.2,0h0.1
		c0,0,0,0,0.1,0h0.1l1.9,0c0,0,0,0,0.1,0h0.1c0,0,0,0,0.1,0h0.1c0,0,0.1,0,0.1,0c0,0,0.1,0,0.1,0c0.1,0,0.1-0.1,0.2-0.2
		c0-0.1,0.1-0.2,0.1-0.3c0,0,0-0.1,0-0.1s0-0.1,0-0.1c0,0,0-0.1,0.1-0.1s0-0.1,0.1-0.1l0.1-0.4l-0.1,1.8h-6l0.3-0.1
		c0.1,0,0.1,0,0.2,0c0.1,0,0.2,0,0.2-0.1l0.2-0.1c0.1,0,0.1,0,0.2-0.1c0,0,0.1,0,0.1-0.1c0,0,0,0,0.1-0.1c0,0,0.1-0.1,0.1-0.2
		c0-0.1,0-0.1,0-0.2V1.1c0-0.1,0-0.1,0-0.2c0-0.1-0.1-0.1-0.1-0.2c0,0,0,0-0.1-0.1c0,0-0.1,0-0.1-0.1c-0.1,0-0.1-0.1-0.2-0.1
		c-0.1,0-0.2-0.1-0.2-0.1c-0.1,0-0.2,0-0.2-0.1s-0.2,0-0.2-0.1l-0.3-0.1L126.1,0.2L126.1,0.2z"/>
	<path id="Path_12" class="st0" d="M148,7.3c-0.2-0.2-0.3-0.3-0.4-0.4c0,0-0.1-0.1-0.2-0.2s-0.2-0.2-0.3-0.3
		c-0.2-0.2-0.3-0.3-0.5-0.5l-0.5-0.5c0,0-0.1-0.1-0.1-0.1c0,0-0.1-0.1-0.1-0.1c-0.7-0.8-1.4-1.5-2.1-2.2l-1.4-1.4v5.1
		c0,0.1,0,0.1,0,0.2v0.4c0,0.1,0,0.2,0,0.4c0,0.1,0,0.2,0.1,0.3c0,0.1,0.1,0.2,0.2,0.2c0.1,0.1,0.2,0.1,0.3,0.1c0,0,0.1,0,0.1,0
		c0,0,0.1,0,0.1,0l0.3,0.1h-2.9l0.2-0.1c0,0,0.1,0,0.1,0l0.1,0c0.1,0,0.3-0.1,0.4-0.2c0.1,0,0.2-0.1,0.2-0.2c0-0.1,0.1-0.2,0.1-0.4
		c0-0.2,0-0.4,0-0.5V0.2h0.7c0.1,0.1,0.2,0.2,0.3,0.4s0.3,0.3,0.4,0.5l1,1.1c0.4,0.4,0.8,0.8,1.2,1.2c0.8,0.8,1.5,1.6,2.2,2.3
		s1.1,1.2,1.3,1.3V1.4c0-0.2,0-0.3,0-0.4c0-0.1,0-0.2-0.1-0.3c0-0.1-0.1-0.2-0.2-0.2c-0.1-0.1-0.2-0.1-0.3-0.1c0,0,0,0,0,0
		c0,0,0,0,0,0c0,0-0.1,0-0.1,0s-0.1,0-0.1,0l-0.2-0.1h2.9l-0.3,0.1c0,0,0,0-0.1,0c0,0,0,0-0.1,0c-0.1,0-0.2,0.1-0.3,0.2
		c-0.1,0-0.2,0.1-0.3,0.2c-0.1,0.1-0.1,0.2-0.1,0.3c0,0.1,0,0.3,0,0.4c0,0.1,0,0.2,0,0.3v6.9h-0.5C148.5,7.9,148.1,7.5,148,7.3z"/>
	<path id="Path_13" class="st0" d="M165.3,0.2h5.3l0.6-0.2l0,2.5L171,1.9c0,0,0,0,0,0c0,0,0,0,0,0c0,0,0-0.1,0-0.1c0,0,0-0.1,0-0.1
		c-0.1-0.2-0.1-0.3-0.2-0.4c0-0.1-0.1-0.2-0.2-0.3c0,0-0.1,0-0.1,0c-0.1,0-0.2,0-0.2,0h-1.7v6.6c0,0.1,0,0.2,0,0.3
		c0,0.1,0.1,0.2,0.1,0.3c0.1,0.1,0.2,0.1,0.2,0.2c0.1,0,0.2,0.1,0.4,0.1l0.1,0c0,0,0,0,0.1,0c0.1,0,0.1,0,0.2,0.1s0.1,0,0.1,0.1
		l0.2,0.1H166l0.3-0.1c0.1,0,0.1,0,0.2,0c0.1,0,0.2,0,0.2-0.1l0.2-0.1c0.1,0,0.1,0,0.2-0.1c0,0,0.1,0,0.1-0.1c0,0,0,0,0.1-0.1
		c0,0,0-0.1,0.1-0.1c0,0,0-0.1,0-0.1c0,0,0-0.1,0-0.1c0,0,0-0.1,0-0.1V7.5c0,0,0,0,0-0.1V0.8h-1.8c0,0-0.1,0-0.1,0c0,0-0.1,0-0.1,0
		c0,0,0,0-0.1,0s0,0-0.1,0c-0.1,0.1-0.2,0.2-0.2,0.3c-0.1,0.2-0.1,0.3-0.1,0.5c0,0,0,0.1,0,0.1c0,0,0,0.1,0,0.1c0,0,0,0.1,0,0.1
		l-0.1,0.4L164.8,0L165.3,0.2z"/>
	<path id="Path_14" class="st0" d="M188,0c0.3,0,0.5,0,0.8,0.1c0.2,0,0.4,0.1,0.6,0.1c0,0,0,0,0.1,0c0,0,0,0,0.1,0l0.2,0.1l0,2.2
		l-0.5-1.1c-0.1-0.2-0.3-0.4-0.5-0.5c-0.3-0.1-0.6-0.1-0.8-0.2h-0.1c-0.4,0-0.9,0.2-1.2,0.5c-0.3,0.3-0.5,0.7-0.5,1.1
		c0,0.3,0.1,0.5,0.3,0.7c0.3,0.3,0.6,0.6,0.9,0.7c0.1,0.1,0.2,0.1,0.3,0.1c0.1,0,0.1,0.1,0.2,0.1s0.1,0.1,0.2,0.1
		c0.5,0.3,1,0.6,1.5,0.9c0.4,0.3,0.7,0.9,0.7,1.4c0.1,0.7-0.2,1.3-0.7,1.7c-0.6,0.4-1.2,0.6-1.9,0.6h-0.1c0,0-0.1,0-0.1,0
		c-0.1,0-0.3,0-0.4,0s-0.2,0-0.3-0.1s-0.2,0-0.2-0.1s-0.1,0-0.2,0l-0.5-0.1l-0.1-2.1l0.4,1c0.1,0.3,0.3,0.5,0.5,0.6
		c0.2,0.1,0.5,0.2,0.7,0.2c0,0,0.1,0,0.1,0c0,0,0.1,0,0.1,0c0,0,0,0,0.1,0c0,0,0,0,0.1,0h0.1c0.4,0,0.8-0.1,1.2-0.4
		c0.3-0.2,0.5-0.6,0.5-1V6.6c0-0.3-0.1-0.7-0.4-0.9c-0.3-0.2-0.6-0.4-0.9-0.6C188.1,5,188,5,187.9,4.9s-0.2-0.1-0.3-0.2
		c-0.1-0.1-0.3-0.1-0.4-0.2s-0.2-0.1-0.4-0.2c-0.3-0.2-0.7-0.4-0.9-0.7c-0.3-0.3-0.4-0.8-0.4-1.2V2.3c0-0.6,0.3-1.3,0.8-1.6
		C186.8,0.3,187.4,0,188,0L188,0L188,0z"/>
</g>
<g id="Group_50">
	<path id="Path_15" class="st0" d="M64.3,20.2c0-0.3,0.1-0.6,0.3-0.8c0,0,0.1-0.1,0.1-0.1c0,0,0.1-0.1,0.1-0.1
		c0.2-0.2,0.5-0.4,0.8-0.5c0.4-0.1,0.8-0.3,1.2-0.4c0,0,0.1,0,0.2-0.1s0.1,0,0.2-0.1c0.2-0.1,0.4-0.1,0.6-0.2c0.2,0,0.4-0.1,0.5-0.2
		l0.8-0.3H56.3l0.9,0.3c0.2,0.1,0.4,0.1,0.7,0.2s0.5,0.2,0.8,0.2c0.3,0.1,0.5,0.2,0.8,0.3c0.2,0.1,0.5,0.2,0.7,0.3
		c0.1,0,0.2,0.1,0.3,0.2c0.1,0.1,0.2,0.1,0.2,0.2c0.1,0.1,0.2,0.3,0.2,0.4c0.1,0.1,0.1,0.3,0.1,0.4c0,0.1,0,0.2,0.1,0.3
		c0,0.1,0,0.2,0,0.3v0.4c0,0.1,0,0.1,0,0.2v20.7c0,0.1,0,0.1,0,0.2v0.4c0,0.1,0,0.2,0,0.3c0,0.1,0,0.3-0.1,0.4
		c0,0.1-0.1,0.2-0.1,0.4c-0.1,0.1-0.1,0.2-0.2,0.4c-0.1,0.1-0.1,0.1-0.2,0.2c-0.1,0.1-0.2,0.1-0.3,0.2c-0.2,0.1-0.4,0.2-0.7,0.3
		c-0.3,0.1-0.5,0.2-0.8,0.3c-0.3,0.1-0.5,0.2-0.8,0.2c-0.2,0.1-0.5,0.1-0.7,0.2l-0.9,0.3h12.8l-0.8-0.3c-0.2-0.1-0.3-0.1-0.5-0.2
		c-0.2-0.1-0.4-0.1-0.6-0.2c-0.1,0-0.1,0-0.2,0c-0.1,0-0.1-0.1-0.2-0.1c-0.4-0.1-0.8-0.2-1.2-0.4c-0.3-0.1-0.6-0.3-0.8-0.5
		c-0.2-0.3-0.4-0.6-0.4-0.9c0-0.4-0.1-0.7-0.1-1.1V21.1C64.3,20.8,64.3,20.5,64.3,20.2z"/>
	<path id="Path_16" class="st0" d="M102.6,38.6c-0.2,0.3-0.3,0.6-0.5,0.9c-0.2,0.3-0.4,0.7-0.5,1c-0.2,0.3-0.4,0.6-0.6,0.8
		c-0.8,0.8-1.7,1.3-2.8,1.7c-1.3,0.5-2.7,0.8-4.1,0.9c-0.2,0-0.3,0-0.5,0s-0.3,0-0.5,0c-3.4,0.1-6.8-1.2-9.1-3.7
		c-2.4-2.4-3.7-5.6-3.7-9c-0.1-3.3,1.1-6.6,3.4-9c2.3-2.3,5.4-3.7,8.6-3.8h0.2c0.1,0,0.1,0,0.2,0h0.9c0.2,0,0.4,0,0.5,0
		c0.9,0,1.8,0.2,2.7,0.3c0.7,0.1,1.3,0.3,2,0.5c0.1,0.1,0.1,0.1,0.2,0.1c0,0,0.1,0.1,0.2,0.1c0.4,0.2,0.7,0.6,0.9,1
		c0.2,0.4,0.4,0.9,0.6,1.4c0,0.1,0.1,0.3,0.2,0.4c0.1,0.1,0.1,0.3,0.2,0.4l0.9,2.3l0-7.6l-1.1-0.3c-0.5-0.2-1-0.3-1.5-0.4
		s-1-0.2-1.5-0.3c-0.5-0.1-1-0.1-1.5-0.2s-1-0.1-1.5-0.1c-0.4,0-0.7,0-1.1,0s-0.8,0-1.2,0v0c-4,0.2-7.9,1.7-10.9,4.4
		c-3.1,2.6-4.8,6.5-4.7,10.5v0.5c0,3.4,1.4,6.7,3.9,9.1c2.2,2.3,5,3.9,8.1,4.6c0.4,0.1,0.9,0.2,1.3,0.2c0.4,0,0.9,0.1,1.3,0.1
		c1.8,0,3.3,0,4.5-0.1c1.1-0.1,2.3-0.3,3.4-0.6c0.3-0.1,0.5-0.2,0.8-0.2s0.5-0.2,0.8-0.3l1.4-0.5l1.6-8.1l-0.9,1.8
		C102.9,38,102.7,38.3,102.6,38.6z"/>
	<path id="Path_17" class="st0" d="M113,17.4l-1.6-0.6l0.2,8.3l0.4-1.3c0-0.1,0.1-0.3,0.1-0.4c0-0.1,0.1-0.3,0.1-0.4
		c0-0.1,0-0.2,0.1-0.2c0-0.1,0-0.2,0.1-0.2c0.1-0.6,0.3-1.1,0.5-1.6c0.1-0.4,0.4-0.8,0.7-1.1c0.1,0,0.1-0.1,0.2-0.1
		c0.1,0,0.1-0.1,0.2-0.1c0.1,0,0.2,0,0.3,0c0.1,0,0.2,0,0.4,0h5.9v22.2c0,0.1,0,0.1,0,0.2v0.4c0,0.1,0,0.2,0,0.3
		c0,0.1,0,0.3-0.1,0.4c0,0.1-0.1,0.2-0.1,0.4c-0.1,0.1-0.1,0.2-0.2,0.4c-0.1,0.1-0.1,0.1-0.2,0.2c-0.1,0.1-0.2,0.1-0.3,0.2
		c-0.2,0.1-0.5,0.2-0.7,0.3c-0.3,0.1-0.5,0.2-0.8,0.3c-0.3,0.1-0.5,0.2-0.8,0.2c-0.2,0.1-0.5,0.1-0.7,0.2l-0.9,0.3h12.8l-0.8-0.3
		c-0.2-0.1-0.3-0.1-0.5-0.2c-0.2-0.1-0.4-0.1-0.6-0.2c-0.1,0-0.1,0-0.2,0c-0.1,0-0.1-0.1-0.2-0.1c-0.4-0.1-0.8-0.2-1.2-0.4
		c-0.3-0.1-0.6-0.3-0.8-0.5c-0.2-0.3-0.4-0.6-0.4-0.9c0-0.4-0.1-0.7-0.1-1.1V19.6h5.7c0.3,0,0.5,0,0.8,0.1c0.1,0,0.3,0.1,0.4,0.1
		c0.4,0.2,0.7,0.5,0.8,0.9c0.2,0.4,0.4,0.9,0.6,1.4c0.1,0.2,0.1,0.3,0.1,0.5s0.1,0.3,0.1,0.5c0,0,0,0.1,0,0.1c0,0,0,0.1,0.1,0.1
		l0.6,2l0.1-8.5l-2,0.7C130.9,17.4,113,17.4,113,17.4z"/>
	<path id="Path_18" class="st0" d="M164.7,44.7c-0.3-0.2-0.5-0.3-0.8-0.5c-0.1-0.1-0.2-0.1-0.3-0.2c-0.1-0.1-0.2-0.2-0.3-0.2
		c-0.2-0.2-0.3-0.3-0.5-0.5s-0.4-0.3-0.6-0.5c-0.4-0.4-0.7-0.7-1.1-1.1c-0.3-0.3-0.7-0.7-1-1c-0.1-0.1-0.2-0.2-0.3-0.4
		c-0.1-0.1-0.2-0.2-0.3-0.4c-0.4-0.4-0.8-0.9-1.2-1.3s-0.8-0.9-1.3-1.5l-4.2-4.7l0.8-0.2v0c0.4-0.1,0.8-0.2,1.3-0.4
		c0.5-0.2,0.9-0.3,1.4-0.6c1.1-0.6,2-1.3,2.8-2.2c0.9-1.2,1.4-2.6,1.3-4.1c0.1-1.9-0.6-3.9-1.9-5.3c-1.1-1.2-2.6-2-4.2-2.4
		c-0.2,0-0.4-0.1-0.6-0.1s-0.4-0.1-0.6-0.1c-0.3,0-0.6,0-0.9-0.1s-0.6,0-0.9,0c-0.3,0-0.6,0-0.9,0s-0.6,0-0.8,0h-0.3
		c-0.3,0-0.7,0-1,0.1c-0.4,0-0.7,0-1.1,0h-6.9l0.8,0.3c0.2,0.1,0.4,0.2,0.7,0.2s0.5,0.2,0.7,0.3c0.4,0.2,0.8,0.4,1.2,0.5
		c0.3,0.1,0.6,0.3,0.9,0.6c0.2,0.2,0.3,0.5,0.4,0.8c0,0.3,0.1,0.6,0.1,0.9v21.6c0,0.2-0.1,0.4-0.1,0.6c0,0.2-0.1,0.4-0.3,0.5
		c-0.1,0.1-0.1,0.1-0.2,0.2c-0.1,0.1-0.2,0.2-0.4,0.2c-0.2,0.1-0.4,0.2-0.6,0.3c-0.3,0.1-0.5,0.2-0.8,0.3c-0.3,0.1-0.5,0.2-0.8,0.2
		c-0.2,0.1-0.5,0.1-0.7,0.2l-0.9,0.3h12.8l-0.8-0.3c-0.2-0.1-0.3-0.1-0.5-0.2c-0.2-0.1-0.4-0.1-0.6-0.2c-0.1,0-0.1,0-0.2,0
		c-0.1,0-0.1-0.1-0.2-0.1c-0.4-0.1-0.8-0.2-1.2-0.4c-0.3-0.1-0.6-0.3-0.8-0.5c-0.2-0.3-0.4-0.6-0.4-0.9c0-0.4-0.1-0.7-0.1-1.1v-9h1
		l5.5,5.9c0.2,0.2,0.4,0.5,0.6,0.7s0.4,0.5,0.6,0.7c0,0,0,0,0,0.1c0,0,0.1,0,0.1,0.1c1.1,1.2,2.1,2.2,3.1,3.3
		c0.7,0.8,1.6,1.5,2.6,1.9c0.6,0.2,1.2,0.4,1.8,0.5c0.5,0.1,1,0.2,1.5,0.2h0.3c0.1,0,0.1,0,0.2,0l1.3-0.3l-1-0.5
		C165.4,45.1,165,44.9,164.7,44.7z M148.3,31.2V20.9c0-0.3,0-0.5,0.1-0.8c0-0.3,0.2-0.5,0.4-0.6c0.3-0.1,0.6-0.2,0.9-0.2
		c0.5-0.1,0.9-0.1,1.4-0.1h0.6c0.1,0,0.1,0,0.2,0c0.1,0,0.1,0,0.2,0v0c0.1,0,0.2,0,0.3,0c0.1,0,0.2,0,0.2,0.1
		c1.2,0.2,2.3,0.8,3.2,1.7c1,1,1.6,2.4,1.6,3.8v0.5c0.1,1.7-0.7,3.3-2.1,4.3c-1.5,1.1-3.3,1.7-5.2,1.6L148.3,31.2z"/>
	<path id="Path_19" class="st0" d="M182.5,20.2c0-0.3,0.1-0.6,0.3-0.8c0,0,0.1-0.1,0.1-0.1s0.1-0.1,0.1-0.1c0.2-0.2,0.5-0.4,0.8-0.5
		c0.4-0.1,0.8-0.3,1.2-0.4c0,0,0.1,0,0.2-0.1s0.1,0,0.2-0.1c0.2-0.1,0.4-0.1,0.6-0.2c0.2,0,0.4-0.1,0.5-0.2l0.8-0.3h-12.8l0.9,0.3
		c0.2,0.1,0.4,0.1,0.7,0.2s0.5,0.2,0.8,0.2c0.3,0.1,0.5,0.2,0.8,0.3c0.2,0.1,0.5,0.2,0.7,0.3c0.1,0,0.2,0.1,0.3,0.2
		c0.1,0.1,0.2,0.1,0.2,0.2c0.1,0.1,0.2,0.3,0.2,0.4c0.1,0.1,0.1,0.3,0.1,0.4c0,0.1,0,0.2,0.1,0.3c0,0.1,0,0.2,0,0.3v0.4
		c0,0.1,0,0.1,0,0.2v20.7c0,0.1,0,0.1,0,0.2v0.4c0,0.1,0,0.2,0,0.3s0,0.3-0.1,0.4c0,0.1-0.1,0.2-0.1,0.4c-0.1,0.1-0.1,0.2-0.2,0.4
		c-0.1,0.1-0.1,0.1-0.2,0.2c-0.1,0.1-0.2,0.1-0.3,0.2c-0.2,0.1-0.4,0.2-0.7,0.3c-0.3,0.1-0.5,0.2-0.8,0.3c-0.3,0.1-0.5,0.2-0.8,0.2
		c-0.2,0.1-0.5,0.1-0.7,0.2l-0.9,0.3h12.8l-0.8-0.3c-0.2-0.1-0.3-0.1-0.5-0.2c-0.2-0.1-0.4-0.1-0.6-0.2c-0.1,0-0.1,0-0.2,0
		c-0.1,0-0.1-0.1-0.2-0.1c-0.4-0.1-0.8-0.2-1.2-0.4c-0.3-0.1-0.6-0.3-0.8-0.5c-0.2-0.3-0.4-0.6-0.4-0.9c0-0.4-0.1-0.7-0.1-1.1V21.1
		C182.4,20.8,182.4,20.5,182.5,20.2z"/>
	<path id="Path_20" class="st0" d="M212.8,43.7c-0.1,0.3-0.3,0.6-0.6,0.8c-0.3,0.2-0.6,0.3-0.9,0.5c-0.1,0-0.1,0-0.2,0
		c-0.1,0-0.1,0.1-0.2,0.1s-0.1,0-0.1,0.1c0,0-0.1,0-0.1,0c0,0,0,0,0,0l-0.9,0.4h10.6l-0.8-0.3c-0.1-0.1-0.2-0.1-0.3-0.2l-0.4-0.2
		c-0.5-0.2-0.9-0.4-1.3-0.6c-0.3-0.1-0.6-0.4-0.8-0.7c-0.2-0.3-0.4-0.7-0.6-1c-0.2-0.4-0.5-0.8-0.7-1.2l-6.5-10.7l5.2-9.2
		c0.3-0.4,0.5-0.8,0.8-1.2c0.2-0.3,0.5-0.6,0.8-0.9c0.2-0.2,0.4-0.3,0.6-0.5c0.2-0.1,0.4-0.2,0.6-0.3c0.3-0.1,0.5-0.2,0.8-0.3
		c0.3-0.1,0.5-0.2,0.8-0.2c0.1,0,0.3-0.1,0.4-0.1c0.1,0,0.3-0.1,0.4-0.2l0.8-0.3h-10.8l1,0.5c0.1,0,0.2,0.1,0.3,0.1
		c0.1,0,0.2,0.1,0.3,0.1c0.4,0.2,0.8,0.4,1.2,0.5c0.3,0.1,0.6,0.4,0.7,0.7c0,0.2-0.1,0.5-0.2,0.7c-0.1,0.4-0.3,0.8-0.5,1.2
		c-0.1,0.1-0.1,0.2-0.2,0.3c0,0.1-0.1,0.1-0.2,0.2l-3.9,7.1l-4.6-7.3c0,0,0,0-0.1-0.1c0,0,0-0.1,0-0.1c-0.1-0.1-0.1-0.2-0.2-0.4
		c-0.1-0.1-0.1-0.3-0.2-0.4c0-0.1-0.1-0.3-0.1-0.4c0-0.1,0-0.3,0-0.4v-0.2c0,0,0-0.1,0-0.1c0.1-0.3,0.3-0.6,0.5-0.8
		c0.3-0.2,0.6-0.4,0.9-0.6c0.1-0.1,0.2-0.1,0.3-0.2l0.3-0.2l1-0.4h-11.4l0.8,0.5c0.1,0.1,0.2,0.1,0.3,0.2c0.1,0.1,0.2,0.1,0.4,0.2
		c0.2,0.1,0.3,0.2,0.5,0.2c0.2,0.1,0.3,0.1,0.5,0.2l0.7,0.4c0.2,0.1,0.4,0.2,0.5,0.4c0.1,0.1,0.3,0.3,0.4,0.4s0.3,0.3,0.5,0.4
		c0.2,0.2,0.3,0.4,0.5,0.5c0.2,0.2,0.3,0.4,0.4,0.6l6.3,10.3l-5.8,9.8c-0.2,0.4-0.5,0.8-0.8,1.2c-0.2,0.3-0.5,0.6-0.8,0.9
		c-0.2,0.2-0.4,0.3-0.6,0.5c-0.2,0.1-0.4,0.3-0.6,0.4c-0.3,0.1-0.5,0.2-0.8,0.3c-0.3,0.1-0.5,0.2-0.8,0.2c-0.1,0.1-0.3,0.1-0.4,0.1
		c-0.1,0-0.3,0.1-0.4,0.1l-0.8,0.3h10.3l-1-0.4c-0.1,0-0.2-0.1-0.3-0.1c-0.1,0-0.2-0.1-0.3-0.1c-0.4-0.2-0.7-0.4-1-0.5
		c-0.3-0.1-0.5-0.4-0.6-0.6c0-0.2,0.1-0.4,0.2-0.5c0.1-0.3,0.3-0.6,0.5-0.9c0,0,0,0,0,0s0,0,0,0c0.1-0.2,0.2-0.3,0.3-0.4
		c0.1-0.1,0.2-0.3,0.2-0.4l4.5-7.9l4.7,7.9c0.1,0.1,0.1,0.2,0.2,0.2s0.1,0.2,0.2,0.3c0,0.1,0.1,0.2,0.1,0.3c0,0.1,0.1,0.2,0.1,0.2
		c0.1,0.2,0.2,0.4,0.2,0.6c0.1,0.2,0.1,0.3,0.1,0.5L212.8,43.7C212.8,43.6,212.7,43.6,212.8,43.7z"/>
	<path id="Path_21" class="st0" d="M46.4,4v5.4l-2,5.7l-8.5,2.2c0,0,1.9,0.7,2.1,0.8c0.4,0.1,0.8,0.3,1.1,0.5
		c0.3,0.1,0.5,0.4,0.6,0.7c0,0,0,0,0,0.1v0.1c0,0.2,0,0.4-0.1,0.6c-0.3,1.3-7.4,20.4-7.4,20.4s-7.8-19.9-7.9-20
		c-0.1-0.2-0.1-0.4-0.2-0.6c0-0.2-0.1-0.3-0.1-0.5v-0.1c0,0,0-0.1,0-0.1c0.1-0.3,0.3-0.5,0.5-0.6c0.3-0.2,3-1.3,3-1.3l-5.8-2.5
		l-6.8-1.7l-4.7-1.6l-5-3L3.9,0H3.4L0,8.9L3.3,15l8.2,4.7l2.3,3.2l-3.7,0.7l-0.6,3.2l5.3,2.7l1.2,7.5l5.8,4.2l2.2,5l-0.2,4.2l5,3.4
		l3.9,0.2l4.2-3.3l-1.2-4.9l2-5.2l1.4-3.6l3-4.9V27l2.5-3.4l3.5-6.2l1.3-7.5l-1.9-5.8L46.4,4z"/>
</g>
</svg>
