<?xml version="1.0" encoding="utf-8"?>
<!-- Generator: Adobe Illustrator 24.0.1, SVG Export Plug-In . SVG Version: 6.00 Build 0)  -->
<svg version="1.1" id="Livello_1" xmlns="http://www.w3.org/2000/svg" xmlns:xlink="http://www.w3.org/1999/xlink" x="0px" y="0px"
	 viewBox="0 0 500 500" style="enable-background:new 0 0 500 500;" xml:space="preserve">
<style type="text/css">
	.st0{fill:#FFFFFF;}
</style>
<path id="Path_21" class="st0" d="M449.5,39.9v49.8L431,142l-78.2,20c0,0,17.4,6.7,18.8,7.4c3.6,1.3,7.1,2.9,10.4,4.8
	c2.7,1.2,4.8,3.5,5.9,6.2c0.2,0.2,0.3,0.4,0.3,0.7v1.1c0.1,1.8-0.1,3.6-0.5,5.3C385,199.2,320,374.3,320,374.3S248.2,192,248,191.5
	c-0.5-2-0.9-4-1.4-5.8c-0.4-1.5-0.6-3.1-0.7-4.7v-0.5c0-0.1,0.3-1,0.3-1.2c0.9-2.5,2.7-4.5,5-5.7c2.6-1.5,27.2-11.6,27.2-11.6
	l-53-22.9l-61.7-16L121,108L75.3,81L61.1,3h-4.9L25.1,84.7l29.7,55.5l74.6,43.1l21.1,28.9l-33.6,6.7l-5.7,29.5l48.3,24.7l10.6,68.8
	l53.2,38.2l20.4,45.3l-2.1,38.6l45.3,31.1l35.5,2.2l38.7-30.2L350,422.2l18.2-47.6l12.9-32.7l27.5-44.5V250l22.9-31.3l32.2-56.8
	l11.6-68.4l-17.8-53.3L449.5,39.9z"/>
</svg>
